<svg width="6" height="8" viewBox="0 0 6 8" fill="none" xmlns="http://www.w3.org/2000/svg">
<path d="M5.30783 4.06361L5.12982 3.91172L1.5851 0.887099L1.57213 0.876025L1.55746 0.86731L1.45529 1.03924C1.55746 0.86731 1.55737 0.867257 1.55728 0.867205L1.5571 0.867097L1.55672 0.866874L1.55591 0.866397L1.55404 0.865317L1.54936 0.862696C1.54583 0.860758 1.54146 0.858442 1.53631 0.855861C1.52603 0.850716 1.51243 0.844421 1.49594 0.837937C1.46331 0.825112 1.41723 0.810711 1.36167 0.80393C1.24631 0.78985 1.09399 0.809979 0.952057 0.931046C0.882545 0.990291 0.830998 1.06237 0.809989 1.14742C0.788814 1.23315 0.804159 1.3098 0.828822 1.36761C0.852568 1.42327 0.886038 1.46471 0.910084 1.49033C0.922649 1.50372 0.934157 1.51438 0.943078 1.52213C0.947576 1.52604 0.95152 1.5293 0.954743 1.53188L0.955018 1.53209L3.92771 4.06869L1.1013 6.48034L1.0942 6.4864L1.0877 6.49309L1.23112 6.63249C1.0877 6.49309 1.08763 6.49316 1.08756 6.49323L1.08742 6.49338L1.08713 6.49368L1.0865 6.49433L1.08506 6.49585L1.08149 6.49971C1.07882 6.50264 1.07557 6.50632 1.07187 6.5107C1.06453 6.51941 1.05517 6.5312 1.04508 6.54572C1.02556 6.57382 0.999954 6.61689 0.983013 6.6713C0.965776 6.72666 0.956126 6.79867 0.976263 6.87781C0.996795 6.95852 1.04404 7.02979 1.11295 7.08854M5.30783 4.06361L1.24271 6.93635M5.30783 4.06361L5.13007 4.21579M5.30783 4.06361L5.13007 4.21579M1.11295 7.08854L1.24271 6.93635M1.11295 7.08854C1.11291 7.08851 1.11287 7.08847 1.11283 7.08844L1.24271 6.93635M1.11295 7.08854C1.26441 7.2178 1.44021 7.21 1.5505 7.18517C1.60717 7.17242 1.655 7.15368 1.68831 7.13852C1.70523 7.13082 1.71911 7.12371 1.72933 7.1182L1.74199 7.11114L1.74622 7.10866L1.7478 7.10772L1.74844 7.10733L1.74873 7.10715L1.74887 7.10707C1.74894 7.10703 1.749 7.10699 1.64468 6.93635M1.24271 6.93635C1.41041 7.07957 1.64468 6.93635 1.64468 6.93635M1.64468 6.93635L1.749 7.10699M1.64468 6.93635L1.749 7.10699M5.13007 4.21579L1.77475 7.08828L1.76262 7.09866M5.13007 4.21579L1.76262 7.09866M1.76262 7.09866L1.749 7.10699M1.76262 7.09866L1.749 7.10699" fill="#C40F31" stroke="#C40F31" stroke-width="0.4"/>
</svg>
