<svg width="16" height="26" viewBox="0 0 16 26" fill="none" xmlns="http://www.w3.org/2000/svg">
<path d="M15.1396 13.1123L15.2862 13.2552L15.1399 13.3984L3.39626 24.8883L3.38447 24.8999L3.37094 24.9093L3.25639 24.7454C3.37094 24.9093 3.37087 24.9094 3.3708 24.9094L3.37064 24.9095L3.37027 24.9098L3.36929 24.9105L3.36643 24.9124L3.35717 24.9186C3.35358 24.921 3.34934 24.9238 3.34447 24.9269C3.33883 24.9305 3.33235 24.9346 3.32506 24.9391C3.2979 24.9558 3.25931 24.9785 3.2114 25.0034C3.11622 25.0529 2.98088 25.1133 2.82287 25.1539C2.50696 25.2352 2.07217 25.2421 1.7099 24.8886C1.35409 24.542 1.33753 24.1583 1.41593 23.8705C1.45386 23.7312 1.51306 23.6156 1.56175 23.5355C1.58631 23.4951 1.6088 23.4627 1.62566 23.4399C1.6341 23.4285 1.64118 23.4193 1.64646 23.4127L1.653 23.4046L1.65517 23.402L1.65596 23.4011L1.65629 23.4007L1.65643 23.4005C1.65649 23.4005 1.65656 23.4004 1.80891 23.5299L1.65656 23.4004L1.6626 23.3933L1.66928 23.3868L12.039 13.2748L1.15002 2.65591L1.14415 2.65063C1.13774 2.64476 1.12916 2.63669 1.11893 2.62653C1.09853 2.60627 1.07121 2.57739 1.04113 2.54077C0.981706 2.46841 0.907637 2.36113 0.857359 2.22644C0.806528 2.09028 0.77923 1.92352 0.81905 1.73928C0.858946 1.55469 0.962647 1.36909 1.14663 1.18986C1.51765 0.828047 1.90858 0.769885 2.20868 0.811744C2.35497 0.832149 2.47654 0.875617 2.56164 0.913851C2.60442 0.93307 2.63868 0.951279 2.66303 0.965212C2.67522 0.97219 2.685 0.978131 2.69218 0.982637L2.70101 0.988286L2.70394 0.99022L2.70503 0.990949L2.70548 0.991253L2.70568 0.991389C2.70578 0.991452 2.70587 0.991514 2.5935 1.15696L2.70587 0.991514L2.72048 1.00144L2.73313 1.01378L15.1396 13.1123Z" fill="#C40F31" stroke="#C40F31" stroke-width="0.4"/>
</svg>
