<svg xmlns="http://www.w3.org/2000/svg" viewBox="298.5 383.2 17 16" width="20" height="19"><title>002-call</title><g fill="#cd0a0a"><path d="M310.2 391.6c0 .1 0 .1-.1.1 0 .2.1.4.4.4.2 0 .4-.1.4-.4v-.1-.1c0-.5-.1-.9-.2-1.3-.2-.6-.5-1.1-.9-1.6-.5-.5-1.1-.8-1.8-1.1-.4-.1-.7-.1-1.1-.1h-.4c-.2 0-.2 0-.4.1-.2 0-.4.2-.3.4 0 .2.2.4.4.3H306.8c.9 0 1.8.4 2.3.9.6.6 1 1.3 1 2.2.1.1.1.2.1.3z"/><path d="M312.4 391.9c0 .2.1.4.4.4.2 0 .4-.1.4-.4v-.5c0-.4 0-.7-.1-1-.2-1.3-.8-2.4-1.8-3.3-1.1-1-2.4-1.6-3.9-1.8h-1.1c-.2 0-.4 0-.6.1-.2 0-.4.2-.3.4 0 .2.2.4.4.3.1 0 .2 0 .4-.1h.6c.6 0 1.1.1 1.6.2.9.3 1.7.7 2.3 1.3.5.5 1 1.1 1.2 1.8.2.6.4 1.3.4 2v.1c.1.3.1.4.1.5z"/><path d="M312.9 385.6c-1.6-1.5-3.7-2.4-6.1-2.4h-.7c-.2 0-.5.1-.7.1-.2 0-.4.2-.3.4 0 .2.2.4.4.3.1 0 .2 0 .4-.1h1.1c2.1 0 4.1.8 5.5 2.2 1.4 1.3 2.3 3.3 2.3 5.3v.7c0 .2.1.4.4.4.2 0 .4-.1.4-.4v-.7c-.2-2.2-1.2-4.3-2.7-5.8zM314.8 395.3l-2.9-1.6c-1-.5-1-.1-2 .8-.2.3-.7.9-1.3.8-1.1-.3-3.2-1.9-3.9-2.6-.4-.4-1.8-2.1-1.8-2.5 0-.8 1.8-1.3 1.2-2.8l-1.2-2.8c-1.2-2.7-4.7 1.6-4.4 3.7.7 5 9.7 13 14.8 10.4 1.1-.7 2.6-2.8 1.5-3.4z"/></g></svg>