<svg width="6" height="8" fill="none" xmlns="http://www.w3.org/2000/svg"><path d="M5.308 4.064l-.178-.152L1.585.887 1.572.876 1.557.867l-.102.172.102-.172h0-.001L1.554.864 1.549.863a.394.394 0 00-.053-.025.523.523 0 00-.544.093.418.418 0 00-.142.216.346.346 0 00.019.22.425.425 0 00.126.165h0L3.928 4.07 1.1 6.48l-.007.006-.006.007.143.14-.143-.14h0l-.002.001v.002L1.08 6.5a.392.392 0 00-.036.046.464.464 0 00-.062.125.378.378 0 00.13.418m4.195-3.025L1.243 6.936m4.065-2.872l-.178.152m.178-.152l-.178.152M1.113 7.089l.13-.153m-.13.153s0 0 0 0l.13-.153m-.13.153c.151.129.327.121.438.096a.715.715 0 00.178-.067l.013-.007.004-.002.002-.001h0c0-.001.001-.001-.103-.172m-.402 0c.167.144.402 0 .402 0m0 0l.104.171m-.104-.17l.104.17M5.13 4.216L1.775 7.088l-.012.01M5.13 4.217L1.763 7.099m0 0l-.014.008m.014-.008l-.014.008" fill="#C40F31" stroke="#C40F31" stroke-width=".4"/></svg>