<svg width="16" height="26" fill="none" xmlns="http://www.w3.org/2000/svg"><path d="M15.14 13.112l.146.143-.146.143-11.744 11.49-.012.012-.013.01-.115-.165.115.164h0l-.002.002-.003.001-.009.007a.668.668 0 01-.032.02 1.816 1.816 0 01-.502.215c-.316.081-.75.088-1.113-.265-.356-.347-.372-.73-.294-1.018a1.32 1.32 0 01.23-.458l.007-.008.002-.003h.001V23.4h0l.153.129-.152-.13.006-.007.006-.006 10.37-10.112L1.15 2.655l-.006-.004a.864.864 0 01-.103-.11 1.119 1.119 0 01-.184-.315.86.86 0 01-.038-.487c.04-.184.144-.37.328-.55.37-.361.762-.42 1.062-.377a1.31 1.31 0 01.483.17l.009.006.003.002h.001v.001h0l-.111.166.112-.165.014.01.013.012L15.14 13.112z" fill="#C40F31" stroke="#C40F31" stroke-width=".4"/></svg>